<svg width="189" height="57" viewBox="0 0 189 57" fill="none" xmlns="http://www.w3.org/2000/svg">
<path d="M186.261 35.7058C188.095 25.423 189.012 20.2816 187.533 16.23C186.312 12.8871 184.011 10.0466 180.995 8.15783C177.339 5.86864 172.119 5.69736 161.68 5.35479L31.0395 1.06779C18.1958 0.64632 11.7739 0.435585 7.40114 3.5016C5.50144 4.83361 3.91415 6.56284 2.74933 8.56941C0.0681356 13.1881 0.826798 19.5685 2.34412 32.3293V32.3293C3.53212 42.3205 4.12612 47.316 6.86582 50.8329C8.06716 52.375 9.54091 53.6839 11.2141 54.6947C15.0298 57 20.0605 57 30.1221 57L160.833 57C168.64 57 172.544 57 175.71 55.5548C178.334 54.3566 180.586 52.4709 182.226 50.0975C184.205 47.235 184.89 43.3919 186.261 35.7058V35.7058Z" fill="#EE1474"/>
</svg>
