<svg width="292" height="57" viewBox="0 0 292 57" fill="none" xmlns="http://www.w3.org/2000/svg">
<path d="M283.454 38.0015C286.386 27.137 287.852 21.7048 286.583 17.3813C285.498 13.6846 283.116 10.5035 279.874 8.42226C276.082 5.98809 270.457 5.86608 259.207 5.62207L34.3856 0.745806C20.7811 0.450732 13.9789 0.303196 9.53478 3.67785C7.70906 5.06421 6.20256 6.82671 5.11732 8.84599C2.47564 13.7613 3.68029 20.4576 6.0896 33.8502V33.8502C7.79732 43.343 8.65118 48.0893 11.457 51.3804C12.6253 52.7507 14.0165 53.914 15.5721 54.8212C19.3079 57 24.1305 57 33.7756 57L258.65 57C265.738 57 269.282 57 272.244 55.7622C274.794 54.6963 277.024 52.9879 278.718 50.8035C280.684 48.2671 281.608 44.8452 283.454 38.0015V38.0015Z" fill="#EE1474"/>
</svg>
