<svg width="966" height="377" viewBox="0 0 966 377" fill="none" xmlns="http://www.w3.org/2000/svg">
<g filter="url(#filter0_d_1558_7617)">
<path d="M38.1035 92.0618C46.3681 48.464 50.5004 26.6651 66.0415 13.7933C81.5826 0.921387 103.77 0.921387 148.144 0.921387L813.106 0.921387C858.57 0.921387 881.302 0.921387 896.987 14.256C912.672 27.5907 916.33 50.0263 923.646 94.8976L946.799 236.898C956.644 297.276 961.567 327.466 944.795 347.194C928.023 366.921 897.435 366.921 836.259 366.921H121.226C58.5959 366.921 27.281 366.921 10.4847 346.642C-6.31153 326.363 -0.479212 295.596 11.1854 234.062L38.1035 92.0618Z" fill="#ACCB4E"/>
<path d="M42.0335 92.8068C46.1847 70.9084 49.2369 54.8451 53.1529 42.6261C57.0352 30.5124 61.6315 22.6396 68.593 16.8738C75.5544 11.1081 84.1455 8.05845 96.7703 6.50025C109.505 4.92849 125.856 4.92139 148.144 4.92139H813.106C835.941 4.92139 852.696 4.92869 865.717 6.55729C878.627 8.17202 887.371 11.3317 894.396 17.3036C901.42 23.2754 905.946 31.3974 909.617 43.8793C913.32 56.4685 916.023 73.0041 919.698 95.5413L942.852 237.541C947.794 267.851 951.422 290.162 951.779 307.373C952.134 324.471 949.231 335.8 941.747 344.603C934.264 353.405 923.55 358.094 906.617 360.495C889.573 362.912 866.969 362.921 836.259 362.921H121.226C89.7875 362.921 66.641 362.912 49.233 360.427C31.9341 357.957 21.0567 353.135 13.5653 344.091C6.07399 335.046 3.36254 323.461 4.1581 306.004C4.95867 288.438 9.26014 265.695 15.1154 234.807L42.0335 92.8068Z" stroke="white" stroke-width="8"/>
</g>
<defs>
<filter id="filter0_d_1558_7617" x="0.0244141" y="0.921387" width="965.783" height="376" filterUnits="userSpaceOnUse" color-interpolation-filters="sRGB">
<feFlood flood-opacity="0" result="BackgroundImageFix"/>
<feColorMatrix in="SourceAlpha" type="matrix" values="0 0 0 0 0 0 0 0 0 0 0 0 0 0 0 0 0 0 127 0" result="hardAlpha"/>
<feOffset dx="10" dy="10"/>
<feComposite in2="hardAlpha" operator="out"/>
<feColorMatrix type="matrix" values="0 0 0 0 0.316919 0 0 0 0 0.357976 0 0 0 0 0.727484 0 0 0 0.51 0"/>
<feBlend mode="normal" in2="BackgroundImageFix" result="effect1_dropShadow_1558_7617"/>
<feBlend mode="normal" in="SourceGraphic" in2="effect1_dropShadow_1558_7617" result="shape"/>
</filter>
</defs>
</svg>
