<svg width="25" height="19" viewBox="0 0 25 19" fill="none" xmlns="http://www.w3.org/2000/svg">
<path fill-rule="evenodd" clip-rule="evenodd" d="M0.616211 1.75C0.616211 0.893955 1.31017 0.199997 2.16621 0.199997H22.8329C23.6889 0.199997 24.3829 0.893955 24.3829 1.75C24.3829 2.60604 23.6889 3.3 22.8329 3.3H2.16621C1.31017 3.3 0.616211 2.60604 0.616211 1.75ZM0.616211 9.5C0.616211 8.64395 1.31017 7.95 2.16621 7.95H22.8329C23.6889 7.95 24.3829 8.64395 24.3829 9.5C24.3829 10.356 23.6889 11.05 22.8329 11.05H2.16621C1.31017 11.05 0.616211 10.356 0.616211 9.5ZM0.616211 17.25C0.616211 16.394 1.31017 15.7 2.16621 15.7H22.8329C23.6889 15.7 24.3829 16.394 24.3829 17.25C24.3829 18.106 23.6889 18.8 22.8329 18.8H2.16621C1.31017 18.8 0.616211 18.106 0.616211 17.25Z" fill="#EE1474"/>
</svg>
