<svg width="121" height="56" viewBox="0 0 121 56" fill="none" xmlns="http://www.w3.org/2000/svg">
<path d="M54.2123 15.4771C52.6599 15.4771 51.3024 16.2735 50.5043 17.4775C50.0078 18.1924 49.7124 19.0578 49.7124 19.9922V27.8874C49.4233 30.4522 47.2676 32.4589 44.6218 32.4589C41.7811 32.4589 39.4683 30.1512 39.4683 27.3167V19.9922C39.4683 17.5465 37.4823 15.5648 35.0313 15.5648C32.5802 15.5648 30.5942 17.5465 30.5942 19.9922V27.3167C30.5942 35.0363 36.8853 41.3136 44.6218 41.3136C46.4192 41.3136 48.1349 40.9624 49.7124 40.3416V41.9908C49.7124 43.4959 49.0525 44.9194 47.9087 45.8977C47.2488 46.462 46.1364 47.1268 44.5652 47.1268C42.1142 47.1268 40.1282 49.1084 40.1282 51.5541C40.1282 53.9998 42.1142 55.9814 44.5652 55.9814C47.9087 55.9814 51.1453 54.7899 53.6844 52.6202C56.8016 49.955 58.5927 46.0795 58.5927 41.9783V28.4517C58.6242 28.0755 58.6493 27.7055 58.6493 27.323V19.9106C58.6493 17.4587 56.6633 15.4771 54.2123 15.4771Z" fill="#B20A54"/>
<path d="M106.972 13.3198C99.2358 13.3198 92.9448 19.5971 92.9448 27.3167C92.9448 33.2491 96.7094 38.5543 102.315 40.5234C104.622 41.3386 107.161 40.1283 107.978 37.8143C108.795 35.5066 107.576 32.9794 105.263 32.1642C103.208 31.443 101.825 29.4927 101.825 27.3167C101.825 24.4822 104.138 22.1745 106.979 22.1745C109.819 22.1745 112.132 24.4822 112.132 27.3167V36.6856C112.132 39.1312 114.118 41.1129 116.569 41.1129C119.02 41.1129 121.006 39.1312 121.006 36.6856V27.3167C121 19.5971 114.709 13.3198 106.972 13.3198Z" fill="#B20A54"/>
<path d="M28.0613 27.2038C28.0613 27.1724 28.0551 27.1348 28.0551 27.1034C28.0551 27.0721 28.0551 27.0345 28.0551 27.0031C28.0551 26.9153 28.0425 26.8275 28.0425 26.7397C27.854 21.0018 24.146 15.916 18.6908 13.9971C16.3843 13.1818 13.8453 14.3921 13.0283 16.7061C12.2112 19.0139 13.4305 21.5411 15.7433 22.3563C15.8564 22.3939 15.9632 22.4566 16.0764 22.5005C16.2398 22.6322 16.4157 22.7576 16.6043 22.8643C18.1755 23.7735 19.1433 25.3915 19.181 27.2038C19.181 27.2226 19.181 27.2414 19.181 27.2602C19.1496 30.0696 16.8557 32.346 14.0338 32.346C11.1931 32.346 8.88662 30.0445 8.88662 27.2101V12.9937C8.88662 10.7487 10.7155 8.91756 12.9717 8.91756H15.1462C17.5973 8.91756 19.5832 6.93592 19.5832 4.49023C19.5832 2.04455 17.591 0.0566406 15.1399 0.0566406H12.9654C5.81338 0.0566406 0 5.85731 0 12.9937V17.8286V17.8349V27.2038C0 27.2101 0 27.2101 0 27.2163V27.3229C0 31.1043 1.48948 34.6474 4.19192 37.3001C6.83779 39.8963 10.3195 41.3135 14.0212 41.3135C14.1029 41.3135 14.1846 41.3135 14.2664 41.3135C17.9806 41.2508 21.4687 39.7144 24.102 36.9865C26.641 34.3527 28.0299 30.9601 28.0551 27.3919C28.0551 27.3292 28.0613 27.2665 28.0613 27.2038Z" fill="#B20A54"/>
<path d="M89.9847 27.1471C89.9847 27.1158 89.9785 27.0782 89.9785 27.0468C89.9785 27.0155 89.9785 26.9778 89.9785 26.9465C89.9785 26.8587 89.9659 26.7709 89.9659 26.6831C89.7773 20.9451 86.0693 15.8594 80.6142 13.9404C78.3077 13.1252 75.7687 14.3355 74.9517 16.6495C74.1346 18.9572 75.3539 21.4844 77.6667 22.2997C77.7798 22.3373 77.8866 22.4 77.9998 22.4439C78.1632 22.5756 78.3391 22.701 78.5277 22.8076C80.0989 23.7169 81.0667 25.3348 81.1044 27.1471C81.1044 27.166 81.1044 27.1848 81.1044 27.2036C81.073 30.013 78.7791 32.2894 75.9572 32.2894C73.1165 32.2894 70.81 29.9879 70.81 27.1534V12.9371C70.81 10.6921 72.6389 8.86092 74.8951 8.86092H77.0696C79.5207 8.86092 81.5066 6.87928 81.5066 4.43359C81.5066 1.98791 79.5207 0 77.0633 0H74.8888C67.7431 0 61.9297 5.80067 61.9297 12.9371V17.772V17.7783V27.1471C61.9297 27.1534 61.9297 27.1534 61.9297 27.1597V27.2663C61.9297 31.0477 63.4192 34.5971 66.1216 37.2497C68.7675 39.8459 72.2492 41.2632 75.9509 41.2632C76.0326 41.2632 76.1143 41.2632 76.196 41.2632C79.9103 41.2005 83.3983 39.6641 86.0316 36.9362C88.5707 34.3024 89.9596 30.9097 89.9847 27.3415C89.9847 27.2663 89.9847 27.2099 89.9847 27.1471Z" fill="#B20A54"/>
</svg>
