<svg width="330" height="155" viewBox="0 0 330 155" fill="none" xmlns="http://www.w3.org/2000/svg">
<g filter="url(#filter0_d_3005_451)">
<path d="M292.979 27.2084C214.742 110.78 363.215 100.556 214.742 136.118C66.2686 171.681 -17.7514 88.8565 3.58919 3.64831C24.9298 -81.5599 77.642 -23.0208 170.733 -23.0236C263.824 -23.0263 371.216 -56.3632 292.979 27.2084Z" fill="white"/>
</g>
<g clip-path="url(#clip0_3005_451)">
<path d="M141.856 61.1135C139.63 61.1136 137.684 62.2514 136.539 63.9714C135.828 64.9927 135.404 66.229 135.404 67.5639L135.404 78.8427C134.989 82.5068 131.898 85.3736 128.105 85.3737C124.032 85.3738 120.716 82.0772 120.716 78.0279L120.716 67.5643C120.716 64.0705 117.869 61.2396 114.355 61.2397C110.841 61.2398 107.993 64.0708 107.993 67.5647L107.993 78.0283C107.992 89.0563 117.012 98.0235 128.104 98.0232C130.681 98.0231 133.141 97.5214 135.403 96.6344L135.403 98.9905C135.403 101.141 134.457 103.174 132.817 104.572C131.871 105.378 130.276 106.328 128.023 106.328C124.509 106.328 121.661 109.159 121.661 112.653C121.661 116.147 124.508 118.977 128.023 118.977C132.816 118.977 137.457 117.275 141.097 114.175C145.567 110.368 148.135 104.831 148.135 98.9722L148.136 79.6486C148.181 79.1111 148.217 78.5825 148.217 78.0361L148.217 67.447C148.217 63.9442 145.37 61.1134 141.856 61.1135Z" fill="#D41368"/>
<path d="M217.502 58.0295C206.409 58.0299 197.389 66.9976 197.389 78.0256C197.389 86.5004 202.786 94.0792 210.824 96.892C214.131 98.0565 217.771 96.3274 218.943 93.0217C220.114 89.7249 218.366 86.1146 215.05 84.9501C212.104 83.92 210.121 81.1339 210.121 78.0253C210.121 73.976 213.438 70.6791 217.51 70.679C221.583 70.6789 224.899 73.9756 224.899 78.0248L224.899 91.4089C224.899 94.9028 227.746 97.7336 231.26 97.7335C234.774 97.7334 237.622 94.9024 237.622 91.4086L237.622 78.0245C237.614 66.9965 228.594 58.0292 217.502 58.0295Z" fill="#D41368"/>
<path d="M104.361 77.8671C104.361 77.8223 104.352 77.7686 104.352 77.7238C104.352 77.679 104.352 77.6252 104.352 77.5805C104.352 77.455 104.334 77.3296 104.334 77.2042C104.064 69.0071 98.7479 61.7419 90.9265 59.0008C87.6196 57.8363 83.9792 59.5654 82.8077 62.8711C81.6362 66.1679 83.3842 69.7782 86.7001 70.9427C86.8623 70.9964 87.0155 71.086 87.1777 71.1487C87.412 71.3368 87.6643 71.516 87.9346 71.6683C90.1873 72.9672 91.5749 75.2785 91.6288 77.8675C91.6288 77.8944 91.6288 77.9212 91.6288 77.9481C91.5837 81.9616 88.2946 85.2136 84.2487 85.2137C80.1758 85.2139 76.869 81.9262 76.8691 77.8769L76.8697 57.5678C76.8698 54.3607 79.492 51.7447 82.7269 51.7446L85.8447 51.7445C89.3589 51.7444 92.2064 48.9134 92.2065 45.4196C92.2066 41.9257 89.3502 39.0859 85.836 39.086L82.7183 39.0861C72.4639 39.0864 64.1287 47.3733 64.1284 57.5682L64.1282 64.4752L64.1282 64.4842L64.1278 77.8683C64.1278 77.8773 64.1278 77.8773 64.1278 77.8862L64.1278 78.0385C64.1276 83.4405 66.263 88.5021 70.1376 92.2914C73.931 96.0002 78.923 98.0246 84.2303 98.0245C84.3475 98.0245 84.4646 98.0245 84.5818 98.0245C89.9072 97.9347 94.9083 95.7397 98.6839 91.8426C102.324 88.0799 104.316 83.2333 104.352 78.1359C104.352 78.0463 104.361 77.9567 104.361 77.8671Z" fill="#D41368"/>
<path d="M193.145 77.7839C193.145 77.7391 193.136 77.6854 193.136 77.6406C193.136 77.5958 193.136 77.542 193.136 77.4972C193.136 77.3718 193.118 77.2464 193.118 77.121C192.848 68.9239 187.532 61.6586 179.71 58.9175C176.404 57.753 172.763 59.4821 171.592 62.7879C170.42 66.0847 172.168 69.6949 175.484 70.8594C175.646 70.9132 175.799 71.0028 175.962 71.0655C176.196 71.2536 176.448 71.4328 176.719 71.5851C178.971 72.884 180.359 75.1952 180.413 77.7843C180.413 77.8111 180.413 77.838 180.413 77.8649C180.368 81.8783 177.079 85.1304 173.033 85.1305C168.96 85.1306 165.653 81.8429 165.653 77.7937L165.654 57.4846C165.654 54.2774 168.276 51.6614 171.511 51.6613L174.629 51.6613C178.143 51.6612 180.99 48.8302 180.99 45.3363C180.991 41.8425 178.143 39.0027 174.62 39.0028L171.502 39.0029C161.257 39.0032 152.922 47.2901 152.921 57.485L152.921 64.392L152.921 64.401L152.921 77.7851C152.921 77.794 152.921 77.794 152.921 77.803L152.921 77.9553C152.921 83.3573 155.056 88.4278 158.931 92.2172C162.724 95.9259 167.716 97.9504 173.023 97.9502C173.14 97.9502 173.258 97.9502 173.375 97.9502C178.7 97.8605 183.701 95.6655 187.477 91.7684C191.117 88.0057 193.109 83.159 193.145 78.0616C193.145 77.9541 193.145 77.8735 193.145 77.7839Z" fill="#D41368"/>
</g>
<defs>
<filter id="filter0_d_3005_451" x="0.303711" y="-42.6304" width="329.695" height="197.205" filterUnits="userSpaceOnUse" color-interpolation-filters="sRGB">
<feFlood flood-opacity="0" result="BackgroundImageFix"/>
<feColorMatrix in="SourceAlpha" type="matrix" values="0 0 0 0 0 0 0 0 0 0 0 0 0 0 0 0 0 0 127 0" result="hardAlpha"/>
<feOffset dx="10" dy="10"/>
<feComposite in2="hardAlpha" operator="out"/>
<feColorMatrix type="matrix" values="0 0 0 0 0.316919 0 0 0 0 0.357976 0 0 0 0 0.727484 0 0 0 0.51 0"/>
<feBlend mode="normal" in2="BackgroundImageFix" result="effect1_dropShadow_3005_451"/>
<feBlend mode="normal" in="SourceGraphic" in2="effect1_dropShadow_3005_451" result="shape"/>
</filter>
<clipPath id="clip0_3005_451">
<rect width="173.486" height="80" fill="white" transform="matrix(1 -2.9414e-05 -2.9522e-05 1 64.1289 39.006)"/>
</clipPath>
</defs>
</svg>
