<svg width="250" height="142" viewBox="0 0 250 142" fill="none" xmlns="http://www.w3.org/2000/svg">
<g filter="url(#filter0_d_3011_587)">
<path d="M232.772 21.2807C206.973 80.9963 290.609 131.487 164.215 131.487C37.8206 131.487 -12.9729 106.262 2.7735 34.7276C18.5199 -36.8064 74.8081 -16.6254 143.479 -16.631C212.15 -16.6365 258.571 -38.4349 232.772 21.2807Z" fill="white"/>
</g>
<g clip-path="url(#clip0_3011_587)">
<path d="M114.665 61.4802C112.452 61.4804 110.516 62.6013 109.378 64.2958C108.67 65.3019 108.249 66.5198 108.249 67.8347L108.248 78.9452C107.835 82.5546 104.762 85.3789 100.989 85.3792C96.9391 85.3795 93.6419 82.1322 93.6422 78.1433L93.643 67.8359C93.6433 64.3942 90.812 61.6057 87.3174 61.606C83.8227 61.6063 80.991 64.3952 80.9907 67.8369L80.9899 78.1444C80.989 89.0078 89.9578 97.8408 100.988 97.8399C103.551 97.8397 105.997 97.3453 108.246 96.4715L108.246 98.7924C108.246 100.91 107.305 102.914 105.674 104.291C104.733 105.085 103.147 106.02 100.907 106.021C97.4123 106.021 94.5805 108.81 94.5803 112.251C94.58 115.693 97.4113 118.482 100.906 118.481C105.673 118.481 110.288 116.804 113.908 113.75C118.353 109.999 120.907 104.545 120.908 98.7738L120.909 79.7385C120.954 79.209 120.99 78.6883 120.99 78.15L120.991 67.7189C120.991 64.2684 118.16 61.48 114.665 61.4802Z" fill="#D41368"/>
<path d="M189.987 58.4848C178.959 58.4857 169.99 67.2948 169.99 78.1272C169.989 86.4516 175.355 93.8957 183.345 96.6581C186.633 97.8018 190.252 96.1032 191.417 92.856C192.582 89.6177 190.845 86.0716 187.548 84.9279C184.618 83.9162 182.648 81.1796 182.648 78.1262C182.648 74.1487 185.945 70.9102 189.995 70.9099C194.044 70.9095 197.34 74.1475 197.34 78.125L197.339 91.2716C197.339 94.7035 200.169 97.4839 203.663 97.4837C207.157 97.4834 209.988 94.7025 209.989 91.2706L209.99 78.124C209.982 67.2916 201.015 58.4839 189.987 58.4848Z" fill="#D41368"/>
<path d="M76.9901 77.6471C76.9901 77.603 76.9811 77.5501 76.9811 77.5061C76.9811 77.462 76.9811 77.4091 76.9811 77.365C76.9811 77.2416 76.9632 77.1182 76.9632 76.9947C76.6951 68.9282 71.4102 61.7789 63.6343 59.0818C60.3466 57.936 56.7272 59.6378 55.5624 62.891C54.3975 66.1353 56.1352 69.688 59.4318 70.8338C59.5931 70.8867 59.7454 70.9748 59.9066 71.0365C60.1395 71.2217 60.3903 71.398 60.6591 71.5478C62.8986 72.8259 64.2781 75.1003 64.3316 77.6481C64.3316 77.6746 64.3316 77.701 64.3316 77.7275C64.2865 81.677 61.0163 84.8775 56.9939 84.8778C52.9447 84.8781 49.6571 81.6429 49.6575 77.6581L49.6591 57.6724C49.6594 54.5163 52.2665 51.9419 55.4826 51.9416L58.5823 51.9413C62.0761 51.9411 64.9073 49.155 64.9076 45.7168C64.9078 42.2786 62.0682 39.4842 58.5744 39.4844L55.4747 39.4847C45.2798 39.4855 36.9925 47.6409 36.9917 57.6734L36.9911 64.4705L36.9911 64.4793L36.9901 77.6503C36.9901 77.6592 36.9901 77.6592 36.9901 77.668L36.99 77.8178C36.9896 83.1338 39.1124 88.1147 42.9643 91.8435C46.7355 95.493 51.6984 97.485 56.975 97.4846C57.0915 97.4846 57.2079 97.4845 57.3244 97.4845C62.6189 97.396 67.5911 95.2356 71.345 91.4004C74.9646 87.6974 76.9448 82.9279 76.9811 77.9116C76.9811 77.8234 76.99 77.7353 76.9901 77.6471Z" fill="#D41368"/>
<path d="M165.99 77.6415C165.99 77.5974 165.981 77.5446 165.981 77.5005C165.981 77.4564 165.981 77.4035 165.981 77.3594C165.981 77.236 165.963 77.1126 165.963 76.9892C165.695 68.9239 160.409 61.7757 152.631 59.0791C149.343 57.9334 145.723 59.6349 144.558 62.8876C143.392 66.1315 145.13 69.6836 148.428 70.8293C148.589 70.8821 148.741 70.9703 148.903 71.032C149.136 71.217 149.387 71.3933 149.655 71.5431C151.895 72.8211 153.275 75.0951 153.329 77.6425C153.329 77.669 153.329 77.6954 153.329 77.7219C153.284 81.6708 150.013 84.8708 145.989 84.8711C141.939 84.8714 138.651 81.6367 138.651 77.6525L138.653 57.6699C138.653 54.5142 141.261 51.9402 144.478 51.9399L147.578 51.9397C151.073 51.9394 153.905 49.1537 153.905 45.716C153.905 42.2784 151.074 39.4844 147.57 39.4846L144.47 39.4849C134.282 39.4857 125.992 47.6399 125.992 57.6709L125.991 64.4669L125.991 64.4757L125.99 77.6447C125.99 77.6536 125.99 77.6536 125.99 77.6624L125.99 77.8122C125.99 83.1274 128.113 88.1163 131.966 91.8446C135.738 95.4935 140.702 97.4852 145.979 97.4848C146.096 97.4848 146.212 97.4848 146.329 97.4847C151.625 97.3962 156.598 95.2362 160.353 91.4015C163.973 87.6991 165.954 82.9303 165.99 77.9148C165.99 77.809 165.99 77.7297 165.99 77.6415Z" fill="#D41368"/>
</g>
<defs>
<filter id="filter0_d_3011_587" x="-0.00683594" y="-20.5172" width="250.006" height="162.004" filterUnits="userSpaceOnUse" color-interpolation-filters="sRGB">
<feFlood flood-opacity="0" result="BackgroundImageFix"/>
<feColorMatrix in="SourceAlpha" type="matrix" values="0 0 0 0 0 0 0 0 0 0 0 0 0 0 0 0 0 0 127 0" result="hardAlpha"/>
<feOffset dx="10" dy="10"/>
<feComposite in2="hardAlpha" operator="out"/>
<feColorMatrix type="matrix" values="0 0 0 0 0.316919 0 0 0 0 0.357976 0 0 0 0 0.727484 0 0 0 0.51 0"/>
<feBlend mode="normal" in2="BackgroundImageFix" result="effect1_dropShadow_3011_587"/>
<feBlend mode="normal" in="SourceGraphic" in2="effect1_dropShadow_3011_587" result="shape"/>
</filter>
<clipPath id="clip0_3011_587">
<rect width="173" height="79" fill="white" transform="matrix(1 -8.06626e-05 -8.1485e-05 1 37 39.5001)"/>
</clipPath>
</defs>
</svg>
