<svg width="11" height="8" viewBox="0 0 11 8" fill="none" xmlns="http://www.w3.org/2000/svg">
<path d="M8.54401 6.43192C8.27169 6.47766 8.08801 6.73551 8.13375 7.00784C8.1795 7.28017 8.43735 7.46384 8.70968 7.4181L8.54401 6.43192ZM8.00761 3.69119C7.73146 3.69119 7.50761 3.91504 7.50761 4.19119C7.50761 4.46733 7.73146 4.69119 8.00761 4.69119V3.69119ZM7.54619 3.14133C8.28422 3.14133 8.88228 2.5429 8.88228 1.805H7.88228C7.88228 1.99088 7.73167 2.14133 7.54619 2.14133V3.14133ZM6.21009 1.805C6.21009 2.5429 6.80815 3.14133 7.54619 3.14133V2.14133C7.3607 2.14133 7.21009 1.99088 7.21009 1.805H6.21009ZM7.54619 0.468668C6.80815 0.468668 6.21009 1.06709 6.21009 1.805H7.21009C7.21009 1.61911 7.3607 1.46867 7.54619 1.46867V0.468668ZM8.88228 1.805C8.88228 1.06709 8.28422 0.468668 7.54619 0.468668V1.46867C7.73167 1.46867 7.88228 1.61911 7.88228 1.805H8.88228ZM9.5 5.58204C9.5 5.78814 9.43507 5.95632 9.30804 6.08959C9.17653 6.22755 8.94243 6.36499 8.54401 6.43192L8.70968 7.4181C9.26202 7.32531 9.7145 7.11252 10.0319 6.77955C10.3537 6.44189 10.5 6.01844 10.5 5.58204H9.5ZM8.00761 4.69119C8.46808 4.69119 8.86343 4.82229 9.13024 5.00854C9.39871 5.19596 9.5 5.40653 9.5 5.58204H10.5C10.5 4.98941 10.1553 4.50455 9.70265 4.18857C9.24835 3.87143 8.6475 3.69119 8.00761 3.69119V4.69119ZM4.63127 1.71468C4.63127 2.23255 4.29191 2.51535 3.94591 2.51535V3.51535C4.90922 3.51535 5.63127 2.71748 5.63127 1.71468H4.63127ZM3.94591 2.51535C3.59992 2.51535 3.26056 2.23255 3.26056 1.71468H2.26056C2.26056 2.71748 2.9826 3.51535 3.94591 3.51535V2.51535ZM3.26056 1.71468C3.26056 1.45612 3.34784 1.28618 3.45635 1.18064C3.56795 1.0721 3.7348 1 3.94591 1V0C3.50238 0 3.07655 0.155064 2.75914 0.46378C2.43864 0.775493 2.26056 1.21289 2.26056 1.71468H3.26056ZM3.94591 1C4.15703 1 4.32388 1.0721 4.43548 1.18064C4.54399 1.28618 4.63127 1.45612 4.63127 1.71468H5.63127C5.63127 1.21289 5.45319 0.775493 5.13269 0.46378C4.81528 0.155064 4.38945 0 3.94591 0V1ZM6.53513 6.08394C6.53513 6.24028 6.45793 6.44686 6.08387 6.64189C5.69327 6.84554 5.03031 7 4.01757 7L4.01757 8C5.10798 8 5.9538 7.83747 6.54619 7.5286C7.15513 7.21111 7.53513 6.70966 7.53513 6.08394H6.53513ZM4.01757 7C3.00482 7 2.34186 6.84554 1.95126 6.64189C1.5772 6.44686 1.5 6.24028 1.5 6.08394H0.5C0.5 6.70966 0.880005 7.21111 1.48894 7.5286C2.08134 7.83747 2.92716 8 4.01757 8L4.01757 7ZM1.5 6.08394C1.5 6.00108 1.59069 5.7725 2.09624 5.53527C2.56211 5.31664 3.24086 5.16787 4.01757 5.16787V4.16787C3.12772 4.16787 2.29769 4.3361 1.67141 4.62999C1.08481 4.90527 0.5 5.38473 0.5 6.08394H1.5ZM4.01757 5.16787C4.79428 5.16787 5.47303 5.31664 5.9389 5.53527C6.44444 5.7725 6.53513 6.00108 6.53513 6.08394H7.53513C7.53513 5.38473 6.95032 4.90527 6.36372 4.62999C5.73745 4.3361 4.90741 4.16787 4.01757 4.16787V5.16787Z" fill="white"/>
</svg>
