<svg width="756" height="327" viewBox="0 0 756 327" fill="none" xmlns="http://www.w3.org/2000/svg">
<g filter="url(#filter0_d_1501_1789)">
<path d="M17.2461 99.4988C22.9104 52.5757 25.7426 29.1141 41.6429 15.0177C57.5432 0.921387 81.1751 0.921387 128.439 0.921387L599.75 0.921387C642.28 0.921387 663.545 0.921387 678.819 13.0086C694.093 25.0958 698.979 45.7916 708.753 87.1832L730.477 179.183C745.469 242.677 752.965 274.424 736.15 295.673C719.334 316.921 686.714 316.921 621.474 316.921H117.333C58.4275 316.921 28.9747 316.921 12.2629 298.071C-4.44893 279.22 -0.919168 249.98 6.14036 191.499L17.2461 99.4988Z" fill="white"/>
</g>
<defs>
<filter id="filter0_d_1501_1789" x="0.260742" y="0.921387" width="755.475" height="326" filterUnits="userSpaceOnUse" color-interpolation-filters="sRGB">
<feFlood flood-opacity="0" result="BackgroundImageFix"/>
<feColorMatrix in="SourceAlpha" type="matrix" values="0 0 0 0 0 0 0 0 0 0 0 0 0 0 0 0 0 0 127 0" result="hardAlpha"/>
<feOffset dx="10" dy="10"/>
<feComposite in2="hardAlpha" operator="out"/>
<feColorMatrix type="matrix" values="0 0 0 0 0.316919 0 0 0 0 0.357976 0 0 0 0 0.727484 0 0 0 0.51 0"/>
<feBlend mode="normal" in2="BackgroundImageFix" result="effect1_dropShadow_1501_1789"/>
<feBlend mode="normal" in="SourceGraphic" in2="effect1_dropShadow_1501_1789" result="shape"/>
</filter>
</defs>
</svg>
