<svg width="269" height="60" viewBox="0 0 269 60" fill="none" xmlns="http://www.w3.org/2000/svg">
<path d="M83.5 9C82.5206 5.30997 80.1594 2.98777 76.5 2C69.8741 0.207903 42.5 0 42.5 0C42.5 0 16.1262 0.207903 9.5 2C5.84058 2.98777 3.47959 5.30997 2.5 9C0.722754 15.6815 0.5 30 0.5 30C0.5 30 0.722754 44.3184 2.5 51C3.47959 54.69 5.84058 57.0124 9.5 58C16.1262 59.7922 42.5 60 42.5 60C42.5 60 69.8741 59.7922 76.5 58C80.1594 57.0124 82.5206 54.69 83.5 51C85.2774 44.3184 85.5 30 85.5 30C85.5 30 85.2702 15.6815 83.5 9Z" fill="#FF0000"/>
<path d="M34.5 43L56.5 30L34.5 17V43Z" fill="white"/>
<path d="M104.5 38L94.5 4H102.5L106.5 20C107.37 23.8483 108.086 26.2852 108.5 29C108.785 27.0549 109.509 24.5829 110.5 20L114.5 4H122.5L112.5 38V55H104.5V38Z" fill="#282828"/>
<path d="M124.5 54C122.837 52.8546 121.207 51.418 120.5 49C119.8 46.582 119.5 43.0161 119.5 39V34C119.5 29.9487 119.696 26.4534 120.5 24C121.304 21.5466 122.795 20.1242 124.5 19C126.205 17.8758 128.728 17 131.5 17C134.23 17 135.851 17.8546 137.5 19C139.142 20.1454 140.738 21.5678 141.5 24C142.262 26.4393 142.5 29.9487 142.5 34V39C142.5 43.0161 142.241 46.5679 141.5 49C140.758 51.4393 139.163 52.8759 137.5 54C135.837 55.1244 134.348 56 131.5 56C128.562 56.0069 126.163 55.1454 124.5 54ZM133.5 48C133.957 46.7698 134.5 44.7856 134.5 42V31C134.5 28.299 133.964 26.2444 133.5 25C133.036 23.7486 131.664 23 130.5 23C129.378 23 128.957 23.7486 128.5 25C128.036 26.2515 127.5 28.299 127.5 31V42C127.5 44.7856 128.056 46.7767 128.5 48C128.943 49.2302 129.336 50 130.5 50C131.664 50 133.036 49.2302 133.5 48Z" fill="#282828"/>
<path d="M170.5 55H163.5V51H162.5C160.695 54.4539 158.11 56 154.5 56C152.001 56 150.689 55.6214 149.5 54C148.311 52.3711 147.5 49.4539 147.5 46V18H155.5V45C155.5 46.671 156.132 48.2908 156.5 49C156.868 49.7089 157.636 50 158.5 50C159.236 50 159.82 49.4492 160.5 49C161.18 48.5505 162.167 48.6877 162.5 48V18H170.5V55Z" fill="#282828"/>
<path d="M193.5 11H185.5V55H176.5V11H168.5V4H193.5V11Z" fill="#282828"/>
<path d="M213.5 55H206.5V51H205.5C203.695 54.4539 201.111 56 197.5 56C195.001 56 193.689 55.6214 192.5 54C191.311 52.3711 190.5 49.4539 190.5 46V18H198.5V45C198.5 46.671 199.132 48.2908 199.5 49C199.868 49.7089 200.636 50 201.5 50C202.236 50 202.82 49.4492 203.5 49C204.18 48.5505 205.167 48.6877 205.5 48V18H213.5V55Z" fill="#282828"/>
<path d="M241.5 24C240.978 21.6239 240.659 20.0678 239.5 19C238.341 17.9322 236.532 17 234.5 17C232.926 17 230.867 17.116 229.5 18C228.133 18.884 227.244 20.5644 226.5 22V2H218.5V55H225.5L226.5 52C227.165 53.2728 228.176 54.2573 229.5 55C230.824 55.7355 232.883 56 234.5 56C237.398 56 239.133 54.638 240.5 52C241.867 49.3551 242.5 45.6148 242.5 40V34C242.5 29.7922 242.015 26.3761 241.5 24ZM233.5 39C233.5 41.7438 233.729 44.4442 233.5 46C233.271 47.5558 233.044 48.3496 232.5 49C231.963 49.6576 231.409 50 230.5 50C229.792 50 229.101 49.3323 228.5 49C227.899 48.6747 226.872 48.6507 226.5 48V27C226.786 25.9746 227.792 24.6577 228.5 24C229.201 23.3423 229.677 23 230.5 23C231.373 23 232.027 23.3282 232.5 24C232.979 24.6789 233.314 26.4018 233.5 28C233.686 29.5982 233.5 31.0511 233.5 34V39Z" fill="#282828"/>
<path d="M254.5 41C254.5 43.421 254.361 45.7893 254.5 47C254.638 48.2104 255.057 48.4407 255.5 49C255.943 49.5521 256.58 50 257.5 50C258.738 50 260.043 49.984 260.5 49C260.964 48.016 261.459 46.2937 261.5 44H268.5C268.541 44.3257 268.5 45.4266 268.5 46C268.5 49.483 267.361 51.2797 265.5 53C263.639 54.7203 260.904 56 257.5 56C253.411 56 250.14 54.6263 248.5 52C246.854 49.3737 246.5 45.4938 246.5 40V33C246.5 27.3437 247.798 23.6052 249.5 21C251.202 18.3948 253.37 17 257.5 17C260.343 17 262.978 17.931 264.5 19C266.022 20.069 266.877 21.7417 267.5 24C268.123 26.2583 268.5 29.0215 268.5 33V39H254.5V41ZM255.5 24C255.078 24.5309 254.645 24.7894 254.5 26C254.361 27.2106 254.5 29.5363 254.5 32V34H260.5V32C260.5 29.5787 260.659 27.2531 260.5 26C260.341 24.747 259.922 23.5168 259.5 23C259.078 22.4903 258.379 23 257.5 23C256.615 23.0071 255.915 23.469 255.5 24Z" fill="#282828"/>
</svg>
