<svg width="64" height="45" viewBox="0 0 64 45" fill="none" xmlns="http://www.w3.org/2000/svg">
<g clip-path="url(#clip0_3005_692)">
<path d="M55.3086 44.4418C55.3086 44.4418 37.833 44.9213 32 44.9213C26.167 44.9213 8.69136 44.4418 8.69136 44.4418C4.18301 44.4418 0.488017 40.8112 0.488017 36.3816C0.488017 36.3816 0 26.2892 0 22.9327C0 19.5762 0.488017 9.4838 0.488017 9.4838C0.488017 5.03128 4.18301 1.40077 8.69136 1.40077C8.69136 1.40077 26.167 0.921265 32 0.921265C37.833 0.921265 55.3086 1.40077 55.3086 1.40077C59.817 1.40077 63.512 5.03128 63.512 9.46096C63.512 9.46096 64 19.5533 64 22.9098C64 26.2664 63.512 36.3587 63.512 36.3587C63.512 40.8112 59.817 44.4418 55.3086 44.4418Z" fill="#FF0000"/>
<path fill-rule="evenodd" clip-rule="evenodd" d="M25.8652 32.751V13.0914L42.0395 22.9326L25.8652 32.751Z" fill="white"/>
</g>
<defs>
<clipPath id="clip0_3005_692">
<rect width="64" height="44" fill="white" transform="translate(0 0.921265)"/>
</clipPath>
</defs>
</svg>
